<?xml version="1.0" encoding="utf-8"?>
<!-- Generator: Adobe Illustrator 22.1.0, SVG Export Plug-In . SVG Version: 6.00 Build 0)  -->
<svg version="1.1" id="Layer_1" xmlns="http://www.w3.org/2000/svg" xmlns:xlink="http://www.w3.org/1999/xlink" x="0px" y="0px"
	 viewBox="0 0 1920 1080" style="enable-background:new 0 0 1920 1080;" xml:space="preserve">
<style type="text/css">
	.st0{fill-rule:evenodd;clip-rule:evenodd;fill:none;stroke:#000000;stroke-width:5;stroke-miterlimit:10;}
	.st1{enable-background:new    ;}
	.st2{clip-path:url(#SVGID_2_);enable-background:new    ;}
	.st3{fill:#1F1F1F;}
	.st4{clip-path:url(#SVGID_4_);enable-background:new    ;}
	.st5{clip-path:url(#SVGID_6_);enable-background:new    ;}
	.st6{clip-path:url(#SVGID_8_);enable-background:new    ;}
	.st7{clip-path:url(#SVGID_10_);enable-background:new    ;}
	.st8{clip-path:url(#SVGID_12_);enable-background:new    ;}
	.st9{clip-path:url(#SVGID_14_);enable-background:new    ;}
	.st10{clip-path:url(#SVGID_16_);enable-background:new    ;}
	.st11{clip-path:url(#SVGID_18_);enable-background:new    ;}
	.st12{fill:#DDDDDD;}
	.st13{clip-path:url(#SVGID_20_);enable-background:new    ;}
	.st14{fill:#FFFFFF;}
	.st15{clip-path:url(#SVGID_22_);enable-background:new    ;}
	.st16{clip-path:url(#SVGID_24_);enable-background:new    ;}
	.st17{clip-path:url(#SVGID_26_);enable-background:new    ;}
	.st18{clip-path:url(#SVGID_28_);enable-background:new    ;}
	.st19{clip-path:url(#SVGID_30_);enable-background:new    ;}
</style>
<path class="st0" d="M1708.5,845.5L1708.5,845.5l-1.8,0C1707.3,845.5,1707.9,845.5,1708.5,845.5z"/>
<g>
	<g>
		<g class="st1">
			<g>
				<rect x="215.5" y="843" width="1495.2" height="9"/>
			</g>
			<g class="st1">
				<defs>
					<path id="SVGID_1_" class="st1" d="M1710.7,435v-9c55.3,0,105.5,23.7,141.8,61.9s58.8,91,58.8,149.1
						c0,56-20.6,108.8-58.1,148.5c-37.5,39.8-87.5,62-140.7,62.4l-0.1-9c50.8-0.5,98.4-21.6,134.3-59.6
						c35.9-38.1,55.7-88.6,55.7-142.4c0-55.8-21.6-106.4-56.4-142.9C1811.3,457.6,1763.4,435,1710.7,435z"/>
				</defs>
				<clipPath id="SVGID_2_">
					<use xlink:href="#SVGID_1_"  style="overflow:visible;"/>
				</clipPath>
				<g class="st2">
					<path class="st3" d="M1710.7,435v-9c55.3,0,105.5,23.7,141.8,61.9s58.8,91,58.8,149.1c0,56-20.6,108.8-58.1,148.5
						c-37.5,39.8-87.5,62-140.7,62.4l-0.1-9c50.8-0.5,98.4-21.6,134.3-59.6c35.9-38.1,55.7-88.6,55.7-142.4
						c0-55.8-21.6-106.4-56.4-142.9C1811.3,457.6,1763.4,435,1710.7,435"/>
				</g>
			</g>
			<g class="st1">
				<defs>
					<path id="SVGID_3_" class="st1" d="M1710.7,852v-9c54.3-0.5,103.2-23.9,138.6-61.2c35.3-37.3,57.1-88.6,57.1-144.8
						c0-56.8-21.9-108.3-57.4-145.6s-84.3-60.4-138.3-60.4c-45.2,0-89.2,16.6-124.1,46.7l4.6-15.9c26-22.5,72.1-39.8,119.5-39.8
						c56.5,0,107.8,24.2,144.8,63.2c37,38.9,59.9,92.6,59.9,151.8c0,58.7-22.7,112.1-59.5,151C1818.9,827,1767.7,851.5,1710.7,852z"
						/>
				</defs>
				<clipPath id="SVGID_4_">
					<use xlink:href="#SVGID_3_"  style="overflow:visible;"/>
				</clipPath>
				<g class="st4">
					<path class="st3" d="M1710.7,852v-9c54.3-0.5,103.2-23.9,138.6-61.2c35.3-37.3,57.1-88.6,57.1-144.8
						c0-56.8-21.9-108.3-57.4-145.6s-84.3-60.4-138.3-60.4c-45.2,0-89.2,16.6-124.1,46.7l4.6-15.9c26-22.5,72.1-39.8,119.5-39.8
						c56.5,0,107.8,24.2,144.8,63.2c37,38.9,59.9,92.6,59.9,151.8c0,58.7-22.7,112.1-59.5,151C1818.9,827,1767.7,851.5,1710.7,852"
						/>
				</g>
			</g>
			<g>
				<polygon points="1712.4,839 1712.5,848 215.5,848 215.5,839 				"/>
			</g>
			<g class="st1">
				<defs>
					<path id="SVGID_5_" class="st1" d="M215.5,839l0,9c-57.2,0-109.1-23.3-146.7-60.8S8,697.7,8,640.5s23.3-109.1,60.8-146.7
						S158.3,433,215.5,433c16,0,31.6,1.8,46.9,5.3c15.2,3.5,30,8.8,44.2,15.7l2.9,11.5c-20.1-9.2-34.6-15.1-49.2-18.4
						c-14.5-3.4-30.3-4.5-44.8-5c-54.7,0-104.3,22.3-140.3,58.2c-36,36-58.2,85.6-58.2,140.3c0,54.7,22.3,104.3,58.2,140.3
						C111.2,816.7,160.8,839,215.5,839z"/>
				</defs>
				<clipPath id="SVGID_6_">
					<use xlink:href="#SVGID_5_"  style="overflow:visible;"/>
				</clipPath>
				<g class="st5">
					<path class="st3" d="M215.5,839l0,9c-57.2,0-109.1-23.3-146.7-60.8S8,697.7,8,640.5s23.3-109.1,60.8-146.7S158.3,433,215.5,433
						c16,0,31.6,1.8,46.9,5.3c15.2,3.5,30,8.8,44.2,15.7l2.9,11.5c-20.1-9.2-34.6-15.1-49.2-18.4c-14.5-3.4-30.3-4.5-44.8-5
						c-54.7,0-104.3,22.3-140.3,58.2c-36,36-58.2,85.6-58.2,140.3c0,54.7,22.3,104.3,58.2,140.3C111.2,816.7,160.8,839,215.5,839"/>
				</g>
			</g>
			<g class="st1">
				<defs>
					<path id="SVGID_7_" class="st1" d="M1168.1,301.9l3.6-11.9c20.6-10.3,41.9-18.1,63.9-23.3c22-5.2,44.7-7.8,67.9-7.8
						c65.8,0,128,21.2,179.9,61.3c49.3,38.1,85.7,91.6,103,151.1l-4.8,15.7c-20.5-70.8-55.9-122.7-103.6-159.6
						c-50.4-38.9-110.6-59.5-174.4-59.5c-21.7,0.6-44.5,2.5-65.8,7.6C1216.3,280.6,1195.2,289,1168.1,301.9z"/>
				</defs>
				<clipPath id="SVGID_8_">
					<use xlink:href="#SVGID_7_"  style="overflow:visible;"/>
				</clipPath>
				<g class="st6">
					<path class="st3" d="M1168.1,301.9l3.6-11.9c20.6-10.3,41.9-18.1,63.9-23.3c22-5.2,44.7-7.8,67.9-7.8
						c65.8,0,128,21.2,179.9,61.3c49.3,38.1,85.7,91.6,103,151.1l-4.8,15.7c-20.5-70.8-55.9-122.7-103.6-159.6
						c-50.4-38.9-110.6-59.5-174.4-59.5c-21.7,0.6-44.5,2.5-65.8,7.6C1216.3,280.6,1195.2,289,1168.1,301.9"/>
				</g>
			</g>
			<g class="st1">
				<defs>
					<path id="SVGID_9_" class="st1" d="M1591.2,461.8l-4.6,15.9c-19.2-63.2-57.6-116.6-107.3-154.2
						c-49.7-37.6-110.9-59.5-175.9-59.5c-23.2,0-45.9,2.7-67.9,7.9c-22,5.3-43.3,13.2-63.8,23.7l3.4-11.9
						c14-7.9,35.6-15.1,58.3-20.6c22.7-5.4,45.3-8.8,70-8.2c67,0,130,22.5,181.3,61.3C1536,355,1575.5,410.1,1591.2,461.8z"/>
				</defs>
				<clipPath id="SVGID_10_">
					<use xlink:href="#SVGID_9_"  style="overflow:visible;"/>
				</clipPath>
				<g class="st7">
					<path class="st3" d="M1591.2,461.8l-4.6,15.9c-19.2-63.2-57.6-116.6-107.3-154.2c-49.7-37.6-110.9-59.5-175.9-59.5
						c-23.2,0-45.9,2.7-67.9,7.9c-22,5.3-43.3,13.2-63.8,23.7l3.4-11.9c14-7.9,35.6-15.1,58.3-20.6c22.7-5.4,45.3-8.8,70-8.2
						c67,0,130,22.5,181.3,61.3C1536,355,1575.5,410.1,1591.2,461.8"/>
				</g>
			</g>
			<g>
				<path d="M1710.7,435c52.7,0,100.6,22.6,135.3,59.1c34.8,36.6,56.4,87.1,56.4,142.9c0,53.7-19.8,104.3-55.7,142.4
					c-35.8,38-83.5,59.2-134.3,59.6l-1496.9,0c-54.7,0-104.3-22.3-140.3-58.2c-36-36-58.2-85.6-58.2-140.3
					c0-54.7,22.3-104.3,58.2-140.3c36-36,85.6-58.2,140.3-58.2c14.5,0.6,30.3,1.7,44.8,5c14.5,3.4,29.1,9.2,49.2,18.4
					c25-35.5,52.4-60.2,83.5-77.7c15.9-8.3,33.4-16.3,51-21.4c17.7-5.1,36.7-7.6,60.7-9.4c27.2-74.8,72.2-134.1,132.3-177.2
					c61.9-44.4,135-67.8,211.4-67.8c65.5,0,129.8,17.6,185.7,51c53.7,32,98.5,77.5,133.9,139c27.1-12.9,48.2-21.3,69.6-26.4
					c21.3-5,44.1-7,65.8-7.6c63.8,0,124.1,20.6,174.4,59.5c47.8,36.9,83.1,88.8,103.6,159.6C1625.8,450.3,1667.8,435,1710.7,435z
					 M1710.7,852c57-0.5,108.2-25,145.1-64c36.9-38.9,59.6-92.4,59.5-151c0-59.2-22.9-112.9-59.9-151.8c-37-39-88.3-63.2-144.8-63.2
					c-47.4,0-93.5,17.4-119.5,39.8c-15.8-51.8-55.2-106.8-106.5-145.5c-51.3-38.8-114.3-61.3-181.3-61.3c-24.7-0.6-47.3,2.7-70,8.2
					c-22.7,5.4-44.2,12.7-58.3,20.6C1109.4,172.2,983.9,99,848.5,99c-79.3,0-154.6,25.1-216.7,68.8
					C569.6,211.5,520.7,273.9,495.9,343c-76.2,4.8-148.2,44.6-189.7,104.5c-25.7-11-57.5-18.5-90.7-18.5
					c-58.3,0-111.2,23.7-149.5,62C27.7,529.3,4,582.2,4,640.5C4,698.8,27.7,751.7,66,790c38.3,38.3,91.2,62,149.5,62L1710.7,852"/>
			</g>
			<g class="st1">
				<defs>
					<path id="SVGID_11_" class="st1" d="M306.2,447.5l3.2,11.2c-31.5-13.4-62-20.6-94-20.6c-55.8,0-106.5,22.7-143.1,59.4
						S13,584.7,13,640.5c0,55.8,22.7,106.5,59.4,143.1C109,820.3,159.7,843,215.5,843v9c-58.3,0-111.2-23.7-149.5-62
						C27.7,751.7,4,698.8,4,640.5C4,582.2,27.7,529.3,66,491c38.3-38.3,91.2-62,149.5-62C248.8,429,280.5,436.5,306.2,447.5z"/>
				</defs>
				<clipPath id="SVGID_12_">
					<use xlink:href="#SVGID_11_"  style="overflow:visible;"/>
				</clipPath>
				<g class="st8">
					<path class="st3" d="M306.2,447.5l3.2,11.2c-31.5-13.4-62-20.6-94-20.6c-55.8,0-106.5,22.7-143.1,59.4S13,584.7,13,640.5
						c0,55.8,22.7,106.5,59.4,143.1C109,820.3,159.7,843,215.5,843v9c-58.3,0-111.2-23.7-149.5-62C27.7,751.7,4,698.8,4,640.5
						C4,582.2,27.7,529.3,66,491c38.3-38.3,91.2-62,149.5-62C248.8,429,280.5,436.5,306.2,447.5"/>
				</g>
			</g>
			<g class="st1">
				<defs>
					<path id="SVGID_13_" class="st1" d="M495.9,343l6.5,8.6c-79.4,5-148.9,43.4-193,107l-3.2-11.2
						C347.7,387.6,419.8,347.8,495.9,343z"/>
				</defs>
				<clipPath id="SVGID_14_">
					<use xlink:href="#SVGID_13_"  style="overflow:visible;"/>
				</clipPath>
				<g class="st9">
					<path class="st3" d="M495.9,343l6.5,8.6c-79.4,5-148.9,43.4-193,107l-3.2-11.2C347.7,387.6,419.8,347.8,495.9,343"/>
				</g>
			</g>
			<g class="st1">
				<defs>
					<path id="SVGID_15_" class="st1" d="M504.7,357l-6.4-8.7c25.7-70.9,71.9-131.7,133.5-175.8C695.2,127,770.2,103,848.5,103
						c67.2,0,133,18.1,190.3,52.2c55,32.8,100.9,79.4,132.8,134.9l-3.6,11.9c-35.4-61.5-80.2-107-133.9-139
						c-56-33.3-120.2-51-185.7-51c-76.4,0-149.5,23.4-211.4,67.8C576.9,222.9,531.9,282.2,504.7,357z"/>
				</defs>
				<clipPath id="SVGID_16_">
					<use xlink:href="#SVGID_15_"  style="overflow:visible;"/>
				</clipPath>
				<g class="st10">
					<path class="st3" d="M504.7,357l-6.4-8.7c25.7-70.9,71.9-131.7,133.5-175.8C695.2,127,770.2,103,848.5,103
						c67.2,0,133,18.1,190.3,52.2c55,32.8,100.9,79.4,132.8,134.9l-3.6,11.9c-35.4-61.5-80.2-107-133.9-139
						c-56-33.3-120.2-51-185.7-51c-76.4,0-149.5,23.4-211.4,67.8C576.9,222.9,531.9,282.2,504.7,357"/>
				</g>
			</g>
			<g class="st1">
				<defs>
					<path id="SVGID_17_" class="st1" d="M1175.2,283.7l-3.4,11.9C1103.3,179.5,980.7,108,848.5,108c-77.4,0-150.9,24.5-211.5,67.2
						S528.5,278.7,502.4,351.6l-6.5-8.6c24.7-69.1,73.7-131.5,135.8-175.2C693.9,124.1,769.2,99,848.5,99
						C983.9,99,1109.4,172.2,1175.2,283.7z"/>
				</defs>
				<clipPath id="SVGID_18_">
					<use xlink:href="#SVGID_17_"  style="overflow:visible;"/>
				</clipPath>
				<g class="st11">
					<path class="st3" d="M1175.2,283.7l-3.4,11.9C1103.3,179.5,980.7,108,848.5,108c-77.4,0-150.9,24.5-211.5,67.2
						S528.5,278.7,502.4,351.6l-6.5-8.6c24.7-69.1,73.7-131.5,135.8-175.2C693.9,124.1,769.2,99,848.5,99
						C983.9,99,1109.4,172.2,1175.2,283.7"/>
				</g>
			</g>
		</g>
		<g class="st1">
			<g>
				<polygon class="st12" points="1708.4,834 1708.5,843 211.5,843 211.5,834 				"/>
			</g>
			<g class="st1">
				<defs>
					<path id="SVGID_19_" class="st1" d="M211.5,834l0,9c-55.8,0-106.5-22.7-143.1-59.4S9,696.3,9,640.5
						C9,584.7,31.7,534,68.4,497.4S155.7,438,211.5,438c16,0,31.6,1.8,46.7,5.4c15.2,3.6,29.9,8.9,44,16.1l2.8,11.5
						c-19.9-9.3-34.4-15.3-48.9-18.8c-14.5-3.4-30.2-4.6-44.7-5.1c-53.4,0-101.7,21.7-136.8,56.7c-35,35-56.7,83.4-56.7,136.8
						c0,53.3,21.7,101.7,56.7,136.8C109.8,812.3,158.2,834,211.5,834z"/>
				</defs>
				<clipPath id="SVGID_20_">
					<use xlink:href="#SVGID_19_"  style="overflow:visible;"/>
				</clipPath>
				<g class="st13">
					<path class="st14" d="M211.5,834l0,9c-55.8,0-106.5-22.7-143.1-59.4S9,696.3,9,640.5C9,584.7,31.7,534,68.4,497.4
						S155.7,438,211.5,438c16,0,31.6,1.8,46.7,5.4c15.2,3.6,29.9,8.9,44,16.1l2.8,11.5c-19.9-9.3-34.4-15.3-48.9-18.8
						c-14.5-3.4-30.2-4.6-44.7-5.1c-53.4,0-101.7,21.7-136.8,56.7c-35,35-56.7,83.4-56.7,136.8c0,53.3,21.7,101.7,56.7,136.8
						C109.8,812.3,158.2,834,211.5,834"/>
				</g>
			</g>
			<g class="st1">
				<defs>
					<path id="SVGID_21_" class="st1" d="M1573.4,491.5l5.2-15.1c38.9-28.9,82.9-45.5,128.1-45.5c53.9,0,102.9,23.1,138.3,60.4
						c35.4,37.3,57.4,88.8,57.4,145.6c0,56.3-21.7,107.5-56.9,144.8s-83.6,60.6-137.1,61.1l-0.1-9c50.9-0.5,97.1-22.7,130.6-58.3
						c33.6-35.7,54.4-84.7,54.4-138.7c0-54.4-21-103.7-54.9-139.4c-33.8-35.6-80.4-57.6-131.8-57.6
						C1663.7,440,1621.5,455.8,1573.4,491.5z"/>
				</defs>
				<clipPath id="SVGID_22_">
					<use xlink:href="#SVGID_21_"  style="overflow:visible;"/>
				</clipPath>
				<g class="st15">
					<path class="st14" d="M1573.4,491.5l5.2-15.1c38.9-28.9,82.9-45.5,128.1-45.5c53.9,0,102.9,23.1,138.3,60.4
						c35.4,37.3,57.4,88.8,57.4,145.6c0,56.3-21.7,107.5-56.9,144.8s-83.6,60.6-137.1,61.1l-0.1-9c50.9-0.5,97.1-22.7,130.6-58.3
						c33.6-35.7,54.4-84.7,54.4-138.7c0-54.4-21-103.7-54.9-139.4c-33.8-35.6-80.4-57.6-131.8-57.6
						C1663.7,440,1621.5,455.8,1573.4,491.5"/>
				</g>
			</g>
			<g class="st1">
				<defs>
					<path id="SVGID_23_" class="st1" d="M305,470.9l-2.8-11.5c47.3-64.4,116.8-102.9,193.9-106.2l6.4,8.7
						C422.3,365.5,355.3,402.5,305,470.9z"/>
				</defs>
				<clipPath id="SVGID_24_">
					<use xlink:href="#SVGID_23_"  style="overflow:visible;"/>
				</clipPath>
				<g class="st16">
					<path class="st14" d="M305,470.9l-2.8-11.5c47.3-64.4,116.8-102.9,193.9-106.2l6.4,8.7C422.3,365.5,355.3,402.5,305,470.9"/>
				</g>
			</g>
			<g class="st1">
				<defs>
					<path id="SVGID_25_" class="st1" d="M1160.7,306.2l3.8-11.6c44.3-20,88.6-30.6,135-30.6c65,0,126.1,21.8,175.4,59.3
						s86.5,90.6,103.8,153.1l-5.2,15.1c-20.2-73.3-56.3-124.7-104-161c-47.7-36.3-107-57.5-169.9-57.5
						C1254.5,273,1211.4,283.3,1160.7,306.2z"/>
				</defs>
				<clipPath id="SVGID_26_">
					<use xlink:href="#SVGID_25_"  style="overflow:visible;"/>
				</clipPath>
				<g class="st17">
					<path class="st14" d="M1160.7,306.2l3.8-11.6c44.3-20,88.6-30.6,135-30.6c65,0,126.1,21.8,175.4,59.3s86.5,90.6,103.8,153.1
						l-5.2,15.1c-20.2-73.3-56.3-124.7-104-161c-47.7-36.3-107-57.5-169.9-57.5C1254.5,273,1211.4,283.3,1160.7,306.2"/>
				</g>
			</g>
			<g>
				<path class="st12" d="M844.5,117c128.9,0,248.5,69.8,316.2,189.2c50.7-22.9,93.8-33.2,138.8-33.2c62.9,0,122.2,21.2,169.9,57.5
					c47.7,36.3,83.9,87.8,104,161c48-35.7,90.2-51.5,133.3-51.5c51.3,0,97.9,22,131.8,57.6c33.9,35.7,54.9,85,54.9,139.4
					c0,53.9-20.8,103-54.4,138.7c-33.5,35.6-79.7,57.8-130.6,58.3l-1496.9,0c-53.3,0-101.7-21.7-136.8-56.7
					C39.7,742.2,18,693.8,18,640.5c0-53.4,21.7-101.7,56.7-136.8c35-35,83.4-56.7,136.8-56.7c14.5,0.6,30.2,1.7,44.7,5.1
					c14.5,3.4,29,9.4,48.9,18.8c50.2-68.4,117.2-105.4,197.5-108.9c28.6-77.5,75.8-137.4,135.3-179.3C697.3,140.9,769,117,844.5,117
					z"/>
			</g>
			<g class="st1">
				<defs>
					<path id="SVGID_27_" class="st1" d="M502.5,362l-6.4-8.7c27.2-73.7,75.6-135,136.5-177.9S767.1,108,844.5,108v9
						c-75.5,0-147.2,23.9-206.6,65.7C578.4,224.6,531.2,284.4,502.5,362z"/>
				</defs>
				<clipPath id="SVGID_28_">
					<use xlink:href="#SVGID_27_"  style="overflow:visible;"/>
				</clipPath>
				<g class="st18">
					<path class="st14" d="M502.5,362l-6.4-8.7c27.2-73.7,75.6-135,136.5-177.9S767.1,108,844.5,108v9
						c-75.5,0-147.2,23.9-206.6,65.7C578.4,224.6,531.2,284.4,502.5,362"/>
				</g>
			</g>
			<g class="st1">
				<defs>
					<path id="SVGID_29_" class="st1" d="M844.5,117v-9c132.2,0,254.8,71.5,320,186.6l-3.8,11.6C1093,186.8,973.4,117,844.5,117z"/>
				</defs>
				<clipPath id="SVGID_30_">
					<use xlink:href="#SVGID_29_"  style="overflow:visible;"/>
				</clipPath>
				<g class="st19">
					<path class="st14" d="M844.5,117v-9c132.2,0,254.8,71.5,320,186.6l-3.8,11.6C1093,186.8,973.4,117,844.5,117"/>
				</g>
			</g>
		</g>
	</g>
</g>
</svg>
