<?xml version="1.0" encoding="UTF-8" standalone="no"?>
<!-- Created with Inkscape (http://www.inkscape.org/) -->
<svg xmlns:inkscape="http://www.inkscape.org/namespaces/inkscape" xmlns:rdf="http://www.w3.org/1999/02/22-rdf-syntax-ns#" xmlns="http://www.w3.org/2000/svg" xmlns:xlink="http://www.w3.org/1999/xlink" xmlns:ns1="http://sozi.baierouge.fr" xmlns:cc="http://creativecommons.org/ns#" xmlns:sodipodi="http://sodipodi.sourceforge.net/DTD/sodipodi-0.dtd" xmlns:dc="http://purl.org/dc/elements/1.1/" id="svg2" xml:space="preserve" viewBox="0 0 393.46 73.623" version="1.1" inkscape:version="0.91 r13725">
  <defs id="defs6">
    <linearGradient id="linearGradient24" y2="196.72" gradientUnits="userSpaceOnUse" x2="19.728" gradientTransform="matrix(.0000093728 .8 .8 .0008 .008901 58.911)" y1="196.72" x1="-65.622">
      <stop id="stop26" style="stop-color:#3e9a9d" offset="0"/>
      <stop id="stop28" style="stop-color:#439d9e" offset=".149"/>
      <stop id="stop32" style="stop-color:#53a5a1" offset=".3294"/>
      <stop id="stop34" style="stop-color:#6cb2a5" offset=".5255"/>
      <stop id="stop36" style="stop-color:#8fc4ab" offset=".73730"/>
      <stop id="stop38" style="stop-color:#bcdcb3" offset=".95290"/>
      <stop id="stop40" style="stop-color:#c6e1b5" offset="1"/>
    </linearGradient>
  </defs>
  <g id="g10" transform="matrix(1.25 0 0 -1.25 0 73.623)">
    <g id="g12">
      <g id="g14">
        <g id="g16">
          <g id="g22">
            <path id="path42" style="fill-rule:evenodd;fill:url(#linearGradient24)" d="m314.37 14.793c1.79-3.336-2.44-5.961-12.68-7.883-8.22-1.547-20.64-2.679-37.28-3.398-9.34-0.403-19.14-0.52-29.4-0.36-12.24 0.293-22.04 0.508-29.41 0.641-6.2 0.105-17.03-0.176-32.47-0.84-14.99-0.668-25.82-0.91-32.49-0.722-9.43 0.292-28.31-0.227-56.632-1.559-23.387-1.094-42.082-0.852-56.082 0.719-7.867 0.906-14.332 2.066-19.399 3.48-6.265 1.735-9.078 3.559-8.437 5.481 0.449 0.773 2.863 1.281 7.238 1.519 6.133 0.375 11.348 1.106 15.641 2.199 7.734 2 14 4.282 18.801 6.84 2.933 1.574 7.183 4.215 12.757 7.922 14.055 8.559 23.321 13.84 27.801 15.84 9.442 4.215 18.945 6.094 28.52 5.641 3.707-0.161 8.066-0.989 13.082-2.481 2.879-0.855 7.199-2.226 12.957-4.121 10.746-3.199 20.054-3.426 27.922-0.68 4.933 1.735 13.05 5.149 24.359 10.239 10.398 4.16 19.121 6.015 26.16 5.562 6.531-0.426 12.426-1.812 17.68-4.16 4.082-1.84 8.465-4.629 13.16-8.359 2.719-2.161 6.934-5.641 12.641-10.442 5.414-4.265 10.8-7.773 16.16-10.519 5.625-2.907 11-5.161 16.117-6.762 7.629-2.399 15.387-3.664 23.281-3.797z" inkscape:connector-curvature="0"/>
          </g>
        </g>
      </g>
    </g>
  </g>
<metadata><rdf:RDF><cc:Work><dc:format>image/svg+xml</dc:format><dc:type rdf:resource="http://purl.org/dc/dcmitype/StillImage"/><cc:license rdf:resource="http://creativecommons.org/licenses/publicdomain/"/><dc:publisher><cc:Agent rdf:about="http://openclipart.org/"><dc:title>Openclipart</dc:title></cc:Agent></dc:publisher></cc:Work><cc:License rdf:about="http://creativecommons.org/licenses/publicdomain/"><cc:permits rdf:resource="http://creativecommons.org/ns#Reproduction"/><cc:permits rdf:resource="http://creativecommons.org/ns#Distribution"/><cc:permits rdf:resource="http://creativecommons.org/ns#DerivativeWorks"/></cc:License></rdf:RDF></metadata></svg>
